<svg width="184" height="37" viewBox="0 0 184 37" fill="none" xmlns="http://www.w3.org/2000/svg">
<circle cx="165.5" cy="18.5" r="18.5" fill="#081800"/>
<path d="M167.592 18.0777L163.842 15.5874C163.698 15.4915 163.516 15.4864 163.367 15.5741C163.217 15.6619 163.125 15.8287 163.125 16.0098V20.9902C163.125 21.1713 163.217 21.3381 163.367 21.4259C163.437 21.4676 163.516 21.4883 163.594 21.4883C163.68 21.4883 163.766 21.4629 163.842 21.4126L167.592 18.9223C167.729 18.8313 167.812 18.6717 167.812 18.5C167.812 18.3283 167.729 18.1687 167.592 18.0777ZM164.063 20.0916V16.9083L166.459 18.5L164.063 20.0916Z" fill="white"/>
<path d="M170.656 12.0254H159.344C158.051 12.0254 157 13.1425 157 14.5156V22.4844C157 23.8575 158.051 24.9746 159.344 24.9746H170.656C171.949 24.9746 173 23.8575 173 22.4844V14.5156C173 13.1425 171.949 12.0254 170.656 12.0254ZM172.062 22.4844C172.062 23.3082 171.432 23.9785 170.656 23.9785H159.344C158.568 23.9785 157.938 23.3082 157.938 22.4844V14.5156C157.938 13.6918 158.568 13.0215 159.344 13.0215H170.656C171.432 13.0215 172.062 13.6918 172.062 14.5156V22.4844Z" fill="white"/>
<circle cx="116.5" cy="18.5" r="18.5" fill="#081800"/>
<g clip-path="url(#clip0_5871_21)">
<path d="M119.567 12H113.433C111.508 12 110 13.508 110 15.4333V21.5667C110 23.492 111.508 25 113.433 25H119.567C121.492 25 123 23.492 123 21.5667V15.4333C123 13.508 121.492 12 119.567 12ZM122.161 21.5667C122.161 23.0219 121.021 24.1613 119.567 24.1613H113.433C111.979 24.1613 110.839 23.0215 110.839 21.5667V15.4333C110.839 13.9785 111.979 12.8387 113.433 12.8387H119.567C121.022 12.8387 122.161 13.9785 122.161 15.4333V21.5667Z" fill="white"/>
<path d="M120.59 15.319C120.455 15.2205 120.275 15.2121 120.131 15.296C119.988 15.3803 119.67 15.4218 119.415 15.4553C119.362 15.4625 119.31 15.4692 119.26 15.4763C118.903 15.1802 118.447 15.0142 117.977 15.0142C116.918 15.0142 116.049 15.8336 115.988 16.8644C115.027 16.7025 114.148 16.2018 113.525 15.4495C113.432 15.3371 113.288 15.2821 113.143 15.301C112.999 15.3211 112.876 15.4146 112.817 15.548C112.79 15.6092 112.556 16.185 112.556 17.6091C112.556 18.8425 113.53 19.7487 114.197 20.2255C113.741 20.4331 113.214 20.5094 112.715 20.454C112.519 20.4331 112.336 20.548 112.272 20.7321C112.207 20.9166 112.278 21.1212 112.444 21.2256C113.232 21.723 114.143 21.9859 115.079 21.9859C118.085 21.9859 119.904 19.6245 119.972 17.2963C120.058 17.1709 120.223 16.9268 120.502 16.4987C120.613 16.3263 120.707 15.9548 120.752 15.7489C120.789 15.5862 120.725 15.4172 120.59 15.319ZM119.215 16.9151C119.164 16.9864 119.136 17.0728 119.136 17.1608C119.136 18.816 117.877 21.1472 115.08 21.1472C114.827 21.1472 114.576 21.1242 114.33 21.0789C114.658 20.9547 114.968 20.7815 115.253 20.5622C115.367 20.4746 115.428 20.3337 115.414 20.1907C115.401 20.0477 115.315 19.921 115.186 19.856C115.168 19.8468 113.396 18.9146 113.396 17.6095C113.396 17.1722 113.419 16.8283 113.45 16.5666C114.273 17.2753 115.321 17.6993 116.423 17.7538C116.432 17.7542 116.44 17.7546 116.448 17.7542C116.693 17.7471 116.872 17.568 116.872 17.3349C116.872 17.277 116.86 17.2221 116.839 17.1717C116.828 17.1088 116.823 17.0455 116.823 16.9822C116.823 16.3595 117.34 15.8529 117.977 15.8529C118.297 15.8529 118.604 15.9837 118.821 16.2114C118.92 16.3146 119.064 16.3611 119.204 16.3339C119.299 16.3158 119.409 16.3016 119.524 16.2865C119.566 16.281 119.607 16.2756 119.649 16.2697C119.334 16.7495 119.221 16.9075 119.215 16.9151Z" fill="white"/>
</g>
<circle cx="67.5" cy="18.5" r="18.5" fill="#081800"/>
<g clip-path="url(#clip1_5871_21)">
<path d="M72.4766 12H62.5234C61.6834 12 61 12.6834 61 13.5234V23.4766C61 24.3166 61.6834 25 62.5234 25H72.4766C73.3166 25 74 24.3166 74 23.4766V13.5234C74 12.6834 73.3166 12 72.4766 12ZM72.9844 23.4766C72.9844 23.7566 72.7566 23.9844 72.4766 23.9844H69.582V19.8457H71.1509L71.4102 18.2715H69.582V17.1797C69.582 16.7487 69.9127 16.418 70.3438 16.418H71.3848V14.8438H70.3438C69.0508 14.8438 68.0084 15.8911 68.0084 17.1841V18.2715H66.4844V19.8457H68.0084V23.9844H62.5234C62.2434 23.9844 62.0156 23.7566 62.0156 23.4766V13.5234C62.0156 13.2434 62.2434 13.0156 62.5234 13.0156H72.4766C72.7566 13.0156 72.9844 13.2434 72.9844 13.5234V23.4766Z" fill="white"/>
</g>
<circle cx="18.5" cy="18.5" r="18.5" fill="#081800"/>
<g clip-path="url(#clip2_5871_21)">
<path d="M24.9879 21.178C24.9574 21.8687 24.8457 22.3436 24.6857 22.7551C24.5206 23.1919 24.2667 23.5829 23.934 23.908C23.6089 24.2381 23.2152 24.4947 22.7835 24.6572C22.3697 24.8172 21.8973 24.9289 21.2065 24.9593C20.5106 24.9924 20.2897 25 18.5247 25C16.7597 25 16.5388 24.9924 15.8455 24.9619C15.1547 24.9315 14.6799 24.8197 14.2685 24.6597C13.8316 24.4947 13.4405 24.2407 13.1154 23.908C12.7853 23.5829 12.5289 23.1893 12.3663 22.7575C12.2063 22.3436 12.0946 21.8713 12.0641 21.1805C12.0311 20.4846 12.0234 20.2637 12.0234 18.4987C12.0234 16.7337 12.0311 16.5128 12.0615 15.8195C12.092 15.1288 12.2038 14.6539 12.3638 14.2424C12.5289 13.8056 12.7853 13.4146 13.1154 13.0895C13.4405 12.7593 13.8342 12.5028 14.2659 12.3403C14.6799 12.1803 15.1522 12.0686 15.843 12.0381C16.5362 12.0076 16.7572 12 18.5222 12C20.2872 12 20.5081 12.0076 21.2015 12.0381C21.8922 12.0686 22.3671 12.1803 22.7785 12.3403C23.6521 12.6781 24.3429 13.3688 24.6807 14.2424C24.8406 14.6564 24.9524 15.1288 24.9828 15.8195C25.0133 16.5128 25.0209 16.7337 25.0209 18.4987C25.0209 20.2637 25.0183 20.4846 24.9879 21.178ZM23.8172 15.8703C23.7892 15.2354 23.6826 14.8926 23.5937 14.664C23.3753 14.0977 22.9258 13.6482 22.3594 13.4297C22.1309 13.3408 21.7856 13.2342 21.1531 13.2063C20.4675 13.1758 20.2618 13.1682 18.5273 13.1682C16.7927 13.1682 16.5845 13.1758 15.9013 13.2063C15.2664 13.2342 14.9236 13.3408 14.695 13.4297C14.4132 13.5339 14.1567 13.699 13.9484 13.9148C13.7326 14.1256 13.5675 14.3796 13.4633 14.6614C13.3745 14.89 13.2678 15.2354 13.2399 15.8677C13.2094 16.5534 13.2019 16.7591 13.2019 18.4937C13.2019 20.2282 13.2094 20.4364 13.2399 21.1195C13.2678 21.7544 13.3745 22.0973 13.4633 22.3258C13.5675 22.6078 13.7326 22.8642 13.951 23.0725C14.1617 23.2884 14.4157 23.4534 14.6976 23.5575C14.9262 23.6464 15.2716 23.753 15.9039 23.781C16.5896 23.8115 16.7953 23.8191 18.5298 23.8191C20.2669 23.8191 20.4725 23.8115 21.1557 23.781C21.7906 23.753 22.1335 23.6464 22.362 23.5575C22.6438 23.4534 22.9004 23.2884 23.1086 23.0725C23.3245 22.8617 23.4895 22.6078 23.5937 22.3258C23.6826 22.0973 23.7892 21.7519 23.8172 21.1195C23.8477 20.4339 23.8553 20.2282 23.8553 18.4937C23.8553 16.7591 23.8477 16.556 23.8172 15.8703Z" fill="white"/>
<path d="M18.5251 21.8384C16.6814 21.8384 15.1855 20.3426 15.1855 18.4989C15.1855 16.6551 16.6814 15.1593 18.5251 15.1593C20.3688 15.1593 21.8646 16.6551 21.8646 18.4989C21.8646 20.3426 20.3688 21.8384 18.5251 21.8384ZM18.5251 16.3326C17.329 16.3326 16.3588 17.3027 16.3588 18.4989C16.3588 19.695 17.329 20.6651 18.5251 20.6651C19.7212 20.6651 20.6913 19.695 20.6913 18.4989C20.6913 17.3027 19.7212 16.3326 18.5251 16.3326Z" fill="white"/>
<path d="M22.7761 21.9704C22.7761 21.5398 22.4271 21.1908 21.9964 21.1908C21.5659 21.1908 21.2168 21.5398 21.2168 21.9704C21.2168 22.401 21.5659 22.75 21.9964 22.75C22.4271 22.75 22.7761 22.401 22.7761 21.9704Z" fill="white"/>
</g>
<defs>
<clipPath id="clip0_5871_21">
<rect width="13" height="13" fill="white" transform="translate(110 12)"/>
</clipPath>
<clipPath id="clip1_5871_21">
<rect width="13" height="13" fill="white" transform="translate(61 12)"/>
</clipPath>
<clipPath id="clip2_5871_21">
<rect width="13" height="13" fill="white" transform="matrix(1 0 0 -1 12 25)"/>
</clipPath>
</defs>
</svg>
